<svg width="24" height="16" viewBox="0 0 24 16" fill="black" xmlns="http://www.w3.org/2000/svg">
<path d="M23.8535 7.64662L16.3535 0.146618C16.1582 -0.04871 15.8418 -0.04871 15.6465 0.146618C15.4512 0.341946 15.4512 0.658353 15.6465 0.853634L22.293 7.50013L0.500016 7.50013C0.223641 7.50013 0 7.72377 0 8.00015C0 8.27652 0.223641 8.50016 0.500016 8.50016L22.293 8.50016L15.6465 15.1466C15.4512 15.3419 15.4512 15.6584 15.6465 15.8536C15.7441 15.9513 15.8721 16.0001 16 16.0001C16.128 16.0001 16.2559 15.9513 16.3536 15.8536L23.8536 8.35363C24.0488 8.15835 24.0488 7.84195 23.8535 7.64662Z" />
</svg>
