<svg width="24" height="16" viewBox="0 0 24 16" fill="black" xmlns="http://www.w3.org/2000/svg">
<path d="M0.146485 8.35362L7.64648 15.8536C7.84181 16.049 8.15822 16.049 8.3535 15.8536C8.54883 15.6583 8.54883 15.3419 8.3535 15.1466L1.707 8.50011L23.5 8.50011C23.7764 8.50011 24 8.27647 24 8.00009C24 7.72372 23.7764 7.50008 23.5 7.50008L1.707 7.50008L8.3535 0.853625C8.54883 0.658297 8.54883 0.341892 8.3535 0.146611C8.25586 0.0489698 8.12789 0.000126405 7.99997 0.000126394C7.87205 0.000126382 7.74413 0.0489698 7.64644 0.146611L0.146437 7.64661C-0.0488427 7.84189 -0.0488427 8.1583 0.146485 8.35362Z" />
</svg>
