<svg width="18" height="18" viewBox="0 0 18 18" fill="none" xmlns="http://www.w3.org/2000/svg">
<path d="M17.8556 7.33402C17.9356 7.33402 18.0005 7.39888 18.0005 7.47889V9C18.0005 9.56932 17.9476 10.126 17.8462 10.666C17.0616 14.8604 13.3663 18.0303 8.93702 17.9998C3.96702 17.9655 -0.0104929 13.9498 0.000511058 8.97972C0.0114447 4.01857 4.03677 0 9.00048 0C11.4323 0 13.6388 0.964758 15.2588 2.53188C15.3173 2.58845 15.3188 2.68168 15.2612 2.7392L13.1093 4.89115C13.0539 4.94656 12.9644 4.948 12.9076 4.89396C11.8908 3.92614 10.5152 3.33197 9.00048 3.33197C5.87259 3.33197 3.35382 5.83284 3.33259 8.96066C3.31125 12.109 5.85712 14.668 9.00048 14.668C11.5509 14.668 13.708 12.9832 14.4193 10.666H9.14536C9.06534 10.666 9.00048 10.6011 9.00048 10.5211V7.47886C9.00048 7.39884 9.06534 7.33398 9.14536 7.33398H17.8556V7.33402Z" fill="#2196F3"/>
<path d="M17.855 7.33405H16.7685C16.8485 7.33405 16.9134 7.39891 16.9134 7.47892V9.00003C16.9134 9.56935 16.8605 10.126 16.7591 10.666C16.0106 14.6676 12.6129 17.7365 8.45605 17.9838C8.6151 17.9932 8.7752 17.9987 8.93643 17.9998C13.3658 18.0303 17.061 14.8604 17.8456 10.666C17.947 10.126 17.9999 9.56935 17.9999 9.00003V7.47889C17.9999 7.39891 17.935 7.33405 17.855 7.33405Z" fill="#1E88E5"/>
<path d="M3.85149 6.62632L1.11816 4.65138C2.65161 1.87787 5.60656 0 8.99977 0C11.4316 0 13.6381 0.964758 15.2581 2.53188C15.3166 2.58845 15.3181 2.68168 15.2605 2.7392L13.1086 4.89115C13.0533 4.94645 12.9638 4.94817 12.9071 4.89424C11.8904 3.92625 10.5146 3.332 8.99977 3.332C6.71701 3.332 4.74931 4.68144 3.85149 6.62632Z" fill="#F44336"/>
<path d="M3.0625 6.05616L3.85158 6.62629C4.67107 4.85111 6.38206 3.57262 8.41022 3.36291C8.42548 3.36126 8.44014 3.35925 8.45568 3.35777C8.27719 3.34083 8.09631 3.33197 7.91336 3.33197C5.8512 3.33197 4.05401 4.41911 3.0625 6.05616Z" fill="#E53935"/>
<path d="M14.1717 2.53188C14.2302 2.58845 14.2317 2.68168 14.1741 2.73923L12.4275 4.4859C12.5948 4.61317 12.755 4.74929 12.907 4.894C12.9638 4.94803 13.0533 4.94659 13.1087 4.89118L15.2607 2.73923C15.3182 2.68168 15.3167 2.58848 15.2582 2.53188C13.6382 0.964758 11.4317 0 8.99988 0C8.81739 0 8.63633 0.00608203 8.45654 0.0168047C10.6728 0.148816 12.6732 1.08232 14.1717 2.53188Z" fill="#E53935"/>
<path d="M15.6023 15.1164C13.9587 16.89 11.6089 18 9.00021 18C5.47664 18 2.42607 15.9751 0.94873 13.0252L3.73926 11.1129C4.57664 13.1965 6.61676 14.668 9.00021 14.668C10.496 14.668 11.8563 14.0885 12.8689 13.1418L15.6023 15.1164Z" fill="#4CAF50"/>
<path d="M3.73888 11.1129L2.91602 11.6768C3.87174 13.4572 5.75116 14.668 7.9133 14.668C8.09615 14.668 8.27689 14.659 8.4553 14.6421C6.30905 14.4375 4.51169 13.0359 3.73888 11.1129Z" fill="#43A047"/>
<path d="M8.99991 18C11.6086 18 13.9584 16.89 15.602 15.1164L14.9325 14.6328C13.3893 16.5533 11.0742 17.8274 8.45801 17.9836C8.6373 17.9943 8.81794 18 8.99991 18Z" fill="#43A047"/>
<path d="M3.332 8.99998C3.332 9.74677 3.4765 10.4599 3.73908 11.1129L0.948516 13.0252C0.341543 11.8141 0 10.4469 0 8.99998C0 7.42273 0.405633 5.94034 1.11839 4.65137L3.85172 6.6263C3.51816 7.3481 3.332 8.15251 3.332 8.99998Z" fill="#FFC107"/>
<path d="M2.91634 11.6768L3.73921 11.1129C3.47663 10.4599 3.33214 9.74676 3.33214 8.99997C3.33214 8.15249 3.51829 7.34808 3.85185 6.62628L3.06277 6.05615C2.55037 6.90219 2.25298 7.89497 2.24574 8.96066C2.23906 9.94342 2.48259 10.8688 2.91634 11.6768Z" fill="#FFB300"/>
</svg>
