<svg aria-hidden="true" style="position: absolute; width: 0; height: 0; overflow: hidden;" version="1.1" xmlns="http://www.w3.org/2000/svg" xmlns:xlink="http://www.w3.org/1999/xlink">
<defs>
<symbol id="icon-github-sign" viewBox="0 0 32 32">
<path d="M11.542 25.729c-0.223 0.041-0.32 0.146-0.292 0.312s0.153 0.222 0.375 0.167c0.223-0.055 0.32-0.153 0.292-0.292-0.028-0.153-0.153-0.215-0.375-0.187z"></path>
<path d="M10.354 25.896c-0.222 0-0.333 0.076-0.333 0.229 0 0.181 0.118 0.257 0.354 0.229 0.222 0 0.333-0.076 0.333-0.229 0-0.18-0.118-0.257-0.354-0.229z"></path>
<path d="M8.729 25.833c-0.055 0.153 0.035 0.257 0.271 0.313 0.208 0.083 0.34 0.041 0.396-0.125 0.042-0.153-0.049-0.263-0.271-0.333-0.208-0.055-0.34-0.007-0.396 0.146z"></path>
<path d="M30.24 1.76c-1.174-1.173-2.587-1.76-4.24-1.76h-20c-1.653 0-3.066 0.587-4.24 1.76s-1.76 2.587-1.76 4.24v20c0 1.653 0.587 3.066 1.76 4.239s2.587 1.76 4.24 1.76h4.667c0.305 0 0.535-0.011 0.687-0.031s0.305-0.111 0.458-0.271c0.153-0.16 0.229-0.392 0.229-0.698 0-0.041-0.004-0.514-0.011-1.417s-0.011-1.618-0.011-2.146l-0.479 0.083c-0.306 0.055-0.691 0.080-1.156 0.073s-0.948-0.055-1.448-0.146c-0.5-0.090-0.965-0.299-1.396-0.625s-0.736-0.754-0.917-1.281l-0.208-0.48c-0.139-0.319-0.357-0.673-0.656-1.062s-0.601-0.653-0.906-0.792l-0.146-0.104c-0.097-0.069-0.187-0.153-0.271-0.25s-0.146-0.195-0.187-0.292c-0.042-0.097-0.007-0.177 0.104-0.24s0.312-0.093 0.604-0.093l0.417 0.062c0.278 0.055 0.621 0.222 1.031 0.5s0.746 0.639 1.010 1.083c0.32 0.57 0.705 1.003 1.156 1.302s0.906 0.448 1.364 0.448 0.854-0.035 1.188-0.104c0.333-0.070 0.646-0.174 0.937-0.313 0.125-0.93 0.465-1.646 1.021-2.146-0.792-0.083-1.503-0.208-2.135-0.375s-1.285-0.437-1.958-0.813c-0.674-0.375-1.233-0.84-1.677-1.396s-0.809-1.285-1.094-2.188c-0.285-0.903-0.427-1.945-0.427-3.125 0-1.68 0.549-3.111 1.646-4.292-0.514-1.264-0.465-2.68 0.146-4.25 0.403-0.125 1-0.031 1.792 0.281s1.371 0.58 1.74 0.802c0.368 0.222 0.663 0.41 0.886 0.563 1.292-0.361 2.625-0.542 4-0.542s2.708 0.181 4 0.542l0.792-0.5c0.542-0.333 1.181-0.639 1.917-0.917s1.299-0.354 1.688-0.229c0.625 1.57 0.681 2.986 0.166 4.25 1.097 1.181 1.646 2.611 1.646 4.292 0 1.181-0.142 2.226-0.427 3.135s-0.652 1.639-1.104 2.188c-0.451 0.549-1.014 1.010-1.687 1.385s-1.326 0.646-1.959 0.812c-0.632 0.167-1.344 0.292-2.135 0.376 0.722 0.625 1.083 1.611 1.083 2.958v4.979c0 0.236 0.034 0.427 0.104 0.573s0.181 0.246 0.334 0.302c0.153 0.055 0.288 0.090 0.407 0.104s0.288 0.021 0.51 0.021h4.667c1.653 0 3.066-0.587 4.239-1.76s1.76-2.587 1.76-4.24v-19.999c-0-1.653-0.587-3.066-1.76-4.24z"></path>
<path d="M6.333 23.292c-0.097 0.069-0.083 0.18 0.042 0.333 0.139 0.139 0.25 0.16 0.333 0.062 0.097-0.069 0.083-0.18-0.042-0.333-0.139-0.125-0.25-0.146-0.333-0.062z"></path>
<path d="M5.646 22.771c-0.042 0.097 0.007 0.181 0.146 0.25 0.111 0.070 0.202 0.056 0.271-0.041 0.042-0.097-0.007-0.181-0.146-0.25-0.139-0.042-0.229-0.028-0.271 0.042z"></path>
<path d="M6.979 24.104c-0.125 0.069-0.125 0.195 0 0.375s0.243 0.229 0.354 0.146c0.125-0.097 0.125-0.229 0-0.396-0.111-0.18-0.229-0.222-0.354-0.125z"></path>
<path d="M7.709 25.041c-0.125 0.111-0.098 0.243 0.083 0.396 0.166 0.166 0.305 0.187 0.417 0.062 0.111-0.111 0.083-0.243-0.083-0.395-0.166-0.166-0.305-0.187-0.417-0.063z"></path>
</symbol>
<symbol id="icon-linkedin" viewBox="0 0 32 32">
<path fill="#0077b7" style="fill: var(--color1, #0077b7)" d="M29.105 0h-26.211c-1.599 0-2.895 1.296-2.895 2.895v26.211c0 1.599 1.296 2.895 2.895 2.895h26.211c1.599 0 2.895-1.296 2.895-2.895v-26.211c0-1.599-1.296-2.895-2.895-2.895zM9.902 27.631c0 0.465-0.377 0.842-0.842 0.842h-3.586c-0.465 0-0.842-0.377-0.842-0.842v-15.032c0-0.465 0.377-0.842 0.842-0.842h3.586c0.465 0 0.842 0.377 0.842 0.842v15.032zM7.267 10.34c-1.881 0-3.407-1.525-3.407-3.407s1.525-3.407 3.407-3.407 3.407 1.525 3.407 3.407-1.525 3.407-3.407 3.407zM28.642 27.699c0 0.428-0.347 0.775-0.775 0.775h-3.848c-0.428 0-0.775-0.347-0.775-0.775v-7.051c0-1.052 0.309-4.609-2.749-4.609-2.371 0-2.852 2.435-2.949 3.528v8.132c0 0.428-0.347 0.775-0.775 0.775h-3.722c-0.428 0-0.775-0.347-0.775-0.775v-15.167c0-0.428 0.347-0.775 0.775-0.775h3.722c0.428 0 0.775 0.347 0.775 0.775v1.311c0.879-1.32 2.186-2.338 4.969-2.338 6.161 0 6.126 5.756 6.126 8.919v7.275z"></path>
</symbol>
</defs>
</svg>
